<mxfile host="app.diagrams.net" modified="2023-10-12T22:59:02.042Z" agent="Mozilla/5.0 (Windows NT 10.0; Win64; x64) AppleWebKit/537.36 (KHTML, like Gecko) Chrome/118.0.0.0 Safari/537.36" etag="gxcXxRg1BilA6tkStPMS" version="22.0.0" type="github">
  <diagram name="Page-1" id="2a216829-ef6e-dabb-86c1-c78162f3ba2b">
    <mxGraphModel dx="-1704" dy="1198" grid="1" gridSize="10" guides="1" tooltips="1" connect="1" arrows="1" fold="1" page="1" pageScale="1" pageWidth="850" pageHeight="1100" background="none" math="0" shadow="0">
      <root>
        <mxCell id="0" />
        <mxCell id="1" parent="0" />
        <mxCell id="uLThO-TCvgXetaVc3Vrb-2" value="Customer&lt;br&gt;" style="swimlane;horizontal=0;whiteSpace=wrap;html=1;labelBackgroundColor=none;fillColor=#09555B;strokeColor=#BAC8D3;fontColor=#EEEEEE;" parent="1" vertex="1">
          <mxGeometry x="3530" y="320" width="1740" height="390" as="geometry" />
        </mxCell>
        <mxCell id="uLThO-TCvgXetaVc3Vrb-1" value="" style="shape=mxgraph.bpmn.shape;html=1;verticalLabelPosition=bottom;labelBackgroundColor=none;verticalAlign=top;perimeter=ellipsePerimeter;outline=standard;symbol=general;fillColor=#09555B;strokeColor=#BAC8D3;fontColor=#EEEEEE;" parent="uLThO-TCvgXetaVc3Vrb-2" vertex="1">
          <mxGeometry x="130" y="90" width="50" height="50" as="geometry" />
        </mxCell>
        <mxCell id="5RjKDzKaXBSnI_Yr6U_P-13" style="edgeStyle=orthogonalEdgeStyle;rounded=0;orthogonalLoop=1;jettySize=auto;html=1;entryX=0;entryY=0.5;entryDx=0;entryDy=0;labelBackgroundColor=none;fontColor=default;strokeColor=#0B4D6A;" edge="1" parent="uLThO-TCvgXetaVc3Vrb-2" source="5RjKDzKaXBSnI_Yr6U_P-2" target="5RjKDzKaXBSnI_Yr6U_P-3">
          <mxGeometry relative="1" as="geometry" />
        </mxCell>
        <mxCell id="5RjKDzKaXBSnI_Yr6U_P-2" value="order requirements" style="rounded=1;whiteSpace=wrap;html=1;labelBackgroundColor=none;fillColor=#09555B;strokeColor=#BAC8D3;fontColor=#EEEEEE;" vertex="1" parent="uLThO-TCvgXetaVc3Vrb-2">
          <mxGeometry x="205" y="80" width="120" height="60" as="geometry" />
        </mxCell>
        <mxCell id="5RjKDzKaXBSnI_Yr6U_P-14" style="edgeStyle=orthogonalEdgeStyle;rounded=0;orthogonalLoop=1;jettySize=auto;html=1;entryX=0;entryY=0.5;entryDx=0;entryDy=0;labelBackgroundColor=none;fontColor=default;strokeColor=#0B4D6A;" edge="1" parent="uLThO-TCvgXetaVc3Vrb-2" source="5RjKDzKaXBSnI_Yr6U_P-3">
          <mxGeometry relative="1" as="geometry">
            <mxPoint x="620" y="110" as="targetPoint" />
          </mxGeometry>
        </mxCell>
        <mxCell id="5RjKDzKaXBSnI_Yr6U_P-3" value="check availability" style="rounded=1;whiteSpace=wrap;html=1;labelBackgroundColor=none;fillColor=#09555B;strokeColor=#BAC8D3;fontColor=#EEEEEE;" vertex="1" parent="uLThO-TCvgXetaVc3Vrb-2">
          <mxGeometry x="400" y="80" width="120" height="60" as="geometry" />
        </mxCell>
        <mxCell id="5RjKDzKaXBSnI_Yr6U_P-12" style="edgeStyle=orthogonalEdgeStyle;rounded=0;orthogonalLoop=1;jettySize=auto;html=1;entryX=0.027;entryY=0.385;entryDx=0;entryDy=0;entryPerimeter=0;labelBackgroundColor=none;fontColor=default;strokeColor=#0B4D6A;" edge="1" parent="uLThO-TCvgXetaVc3Vrb-2" source="uLThO-TCvgXetaVc3Vrb-1" target="5RjKDzKaXBSnI_Yr6U_P-2">
          <mxGeometry relative="1" as="geometry" />
        </mxCell>
        <mxCell id="5RjKDzKaXBSnI_Yr6U_P-7" value="produce list" style="rounded=1;whiteSpace=wrap;html=1;labelBackgroundColor=none;fillColor=#09555B;strokeColor=#BAC8D3;fontColor=#EEEEEE;" vertex="1" parent="uLThO-TCvgXetaVc3Vrb-2">
          <mxGeometry x="615" y="80" width="120" height="60" as="geometry" />
        </mxCell>
        <mxCell id="5RjKDzKaXBSnI_Yr6U_P-15" value="z" style="shape=mxgraph.bpmn.shape;html=1;verticalLabelPosition=bottom;labelBackgroundColor=none;verticalAlign=top;perimeter=rhombusPerimeter;background=gateway;outline=none;symbol=parallelGw;fillColor=#09555B;strokeColor=#BAC8D3;fontColor=#EEEEEE;" vertex="1" parent="uLThO-TCvgXetaVc3Vrb-2">
          <mxGeometry x="650" y="210" width="50" height="50" as="geometry" />
        </mxCell>
        <mxCell id="5RjKDzKaXBSnI_Yr6U_P-16" style="edgeStyle=orthogonalEdgeStyle;rounded=0;orthogonalLoop=1;jettySize=auto;html=1;entryX=0.481;entryY=0.169;entryDx=0;entryDy=0;entryPerimeter=0;labelBackgroundColor=none;fontColor=default;strokeColor=#0B4D6A;" edge="1" parent="uLThO-TCvgXetaVc3Vrb-2" source="5RjKDzKaXBSnI_Yr6U_P-7" target="5RjKDzKaXBSnI_Yr6U_P-15">
          <mxGeometry relative="1" as="geometry" />
        </mxCell>
        <mxCell id="uLThO-TCvgXetaVc3Vrb-4" value="Supplier" style="swimlane;horizontal=0;whiteSpace=wrap;html=1;labelBackgroundColor=none;fillColor=#09555B;strokeColor=#BAC8D3;fontColor=#EEEEEE;" parent="uLThO-TCvgXetaVc3Vrb-2" vertex="1">
          <mxGeometry y="180" width="1740" height="210" as="geometry" />
        </mxCell>
        <mxCell id="5RjKDzKaXBSnI_Yr6U_P-25" style="edgeStyle=orthogonalEdgeStyle;rounded=0;orthogonalLoop=1;jettySize=auto;html=1;entryX=0;entryY=0.5;entryDx=0;entryDy=0;labelBackgroundColor=none;fontColor=default;strokeColor=#0B4D6A;" edge="1" parent="uLThO-TCvgXetaVc3Vrb-4" source="5RjKDzKaXBSnI_Yr6U_P-18" target="5RjKDzKaXBSnI_Yr6U_P-19">
          <mxGeometry relative="1" as="geometry" />
        </mxCell>
        <mxCell id="5RjKDzKaXBSnI_Yr6U_P-18" value="produce work order" style="rounded=1;whiteSpace=wrap;html=1;labelBackgroundColor=none;fillColor=#09555B;strokeColor=#BAC8D3;fontColor=#EEEEEE;" vertex="1" parent="uLThO-TCvgXetaVc3Vrb-4">
          <mxGeometry x="750" y="120" width="120" height="60" as="geometry" />
        </mxCell>
        <mxCell id="5RjKDzKaXBSnI_Yr6U_P-19" value="send delivery schedule" style="rounded=1;whiteSpace=wrap;html=1;labelBackgroundColor=none;fillColor=#09555B;strokeColor=#BAC8D3;fontColor=#EEEEEE;" vertex="1" parent="uLThO-TCvgXetaVc3Vrb-4">
          <mxGeometry x="920" y="120" width="120" height="60" as="geometry" />
        </mxCell>
        <mxCell id="5RjKDzKaXBSnI_Yr6U_P-20" value="produce delivery schedule" style="rounded=1;whiteSpace=wrap;html=1;labelBackgroundColor=none;fillColor=#09555B;strokeColor=#BAC8D3;fontColor=#EEEEEE;" vertex="1" parent="uLThO-TCvgXetaVc3Vrb-4">
          <mxGeometry x="750" y="30" width="120" height="60" as="geometry" />
        </mxCell>
        <mxCell id="5RjKDzKaXBSnI_Yr6U_P-27" style="edgeStyle=orthogonalEdgeStyle;rounded=0;orthogonalLoop=1;jettySize=auto;html=1;entryX=0;entryY=0.5;entryDx=0;entryDy=0;labelBackgroundColor=none;fontColor=default;strokeColor=#0B4D6A;" edge="1" parent="uLThO-TCvgXetaVc3Vrb-4" source="5RjKDzKaXBSnI_Yr6U_P-21" target="5RjKDzKaXBSnI_Yr6U_P-22">
          <mxGeometry relative="1" as="geometry" />
        </mxCell>
        <mxCell id="5RjKDzKaXBSnI_Yr6U_P-21" value="assemble products" style="rounded=1;whiteSpace=wrap;html=1;labelBackgroundColor=none;fillColor=#09555B;strokeColor=#BAC8D3;fontColor=#EEEEEE;" vertex="1" parent="uLThO-TCvgXetaVc3Vrb-4">
          <mxGeometry x="1080" y="120" width="120" height="60" as="geometry" />
        </mxCell>
        <mxCell id="5RjKDzKaXBSnI_Yr6U_P-22" value="delivery to warehouse" style="rounded=1;whiteSpace=wrap;html=1;labelBackgroundColor=none;fillColor=#09555B;strokeColor=#BAC8D3;fontColor=#EEEEEE;" vertex="1" parent="uLThO-TCvgXetaVc3Vrb-4">
          <mxGeometry x="1250" y="120" width="120" height="60" as="geometry" />
        </mxCell>
        <mxCell id="5RjKDzKaXBSnI_Yr6U_P-26" style="edgeStyle=orthogonalEdgeStyle;rounded=0;orthogonalLoop=1;jettySize=auto;html=1;entryX=0.167;entryY=0.5;entryDx=0;entryDy=0;entryPerimeter=0;labelBackgroundColor=none;fontColor=default;strokeColor=#0B4D6A;" edge="1" parent="uLThO-TCvgXetaVc3Vrb-4" source="5RjKDzKaXBSnI_Yr6U_P-19" target="5RjKDzKaXBSnI_Yr6U_P-21">
          <mxGeometry relative="1" as="geometry" />
        </mxCell>
        <mxCell id="5RjKDzKaXBSnI_Yr6U_P-5" value="" style="shape=mxgraph.bpmn.shape;html=1;verticalLabelPosition=bottom;labelBackgroundColor=none;verticalAlign=top;perimeter=ellipsePerimeter;outline=end;symbol=general;fillColor=#09555B;strokeColor=#BAC8D3;fontColor=#EEEEEE;" vertex="1" parent="uLThO-TCvgXetaVc3Vrb-4">
          <mxGeometry x="1510" y="60" width="50" height="50" as="geometry" />
        </mxCell>
        <mxCell id="5RjKDzKaXBSnI_Yr6U_P-24" style="edgeStyle=orthogonalEdgeStyle;rounded=0;orthogonalLoop=1;jettySize=auto;html=1;entryX=0;entryY=0.75;entryDx=0;entryDy=0;labelBackgroundColor=none;fontColor=default;strokeColor=#0B4D6A;" edge="1" parent="uLThO-TCvgXetaVc3Vrb-2" source="5RjKDzKaXBSnI_Yr6U_P-15" target="5RjKDzKaXBSnI_Yr6U_P-18">
          <mxGeometry relative="1" as="geometry" />
        </mxCell>
        <mxCell id="5RjKDzKaXBSnI_Yr6U_P-23" style="edgeStyle=orthogonalEdgeStyle;rounded=0;orthogonalLoop=1;jettySize=auto;html=1;entryX=0;entryY=0.75;entryDx=0;entryDy=0;labelBackgroundColor=none;fontColor=default;strokeColor=#0B4D6A;" edge="1" parent="uLThO-TCvgXetaVc3Vrb-2" source="5RjKDzKaXBSnI_Yr6U_P-15" target="5RjKDzKaXBSnI_Yr6U_P-20">
          <mxGeometry relative="1" as="geometry" />
        </mxCell>
        <mxCell id="5RjKDzKaXBSnI_Yr6U_P-32" style="edgeStyle=orthogonalEdgeStyle;rounded=0;orthogonalLoop=1;jettySize=auto;html=1;entryX=0;entryY=0.5;entryDx=0;entryDy=0;labelBackgroundColor=none;fontColor=default;strokeColor=#0B4D6A;" edge="1" parent="1" source="5RjKDzKaXBSnI_Yr6U_P-28" target="5RjKDzKaXBSnI_Yr6U_P-5">
          <mxGeometry relative="1" as="geometry" />
        </mxCell>
        <mxCell id="5RjKDzKaXBSnI_Yr6U_P-28" value="z" style="shape=mxgraph.bpmn.shape;html=1;verticalLabelPosition=bottom;labelBackgroundColor=none;verticalAlign=top;perimeter=rhombusPerimeter;background=gateway;outline=none;symbol=parallelGw;fillColor=#09555B;strokeColor=#BAC8D3;fontColor=#EEEEEE;" vertex="1" parent="1">
          <mxGeometry x="4950" y="550" width="50" height="50" as="geometry" />
        </mxCell>
        <mxCell id="5RjKDzKaXBSnI_Yr6U_P-30" style="edgeStyle=orthogonalEdgeStyle;rounded=0;orthogonalLoop=1;jettySize=auto;html=1;entryX=0.25;entryY=0.25;entryDx=0;entryDy=0;entryPerimeter=0;labelBackgroundColor=none;fontColor=default;strokeColor=#0B4D6A;" edge="1" parent="1" source="5RjKDzKaXBSnI_Yr6U_P-20" target="5RjKDzKaXBSnI_Yr6U_P-28">
          <mxGeometry relative="1" as="geometry" />
        </mxCell>
        <mxCell id="5RjKDzKaXBSnI_Yr6U_P-31" style="edgeStyle=orthogonalEdgeStyle;rounded=0;orthogonalLoop=1;jettySize=auto;html=1;entryX=0.25;entryY=0.75;entryDx=0;entryDy=0;entryPerimeter=0;labelBackgroundColor=none;fontColor=default;strokeColor=#0B4D6A;" edge="1" parent="1" source="5RjKDzKaXBSnI_Yr6U_P-22" target="5RjKDzKaXBSnI_Yr6U_P-28">
          <mxGeometry relative="1" as="geometry" />
        </mxCell>
      </root>
    </mxGraphModel>
  </diagram>
</mxfile>
